<?xml version="1.0" encoding="utf-8"?>
<!-- Generator: Adobe Illustrator 22.1.0, SVG Export Plug-In . SVG Version: 6.00 Build 0)  -->
<svg version="1.1" xmlns="http://www.w3.org/2000/svg" xmlns:xlink="http://www.w3.org/1999/xlink" x="0px" y="0px"
	 viewBox="0 0 460 678" style="enable-background:new 0 0 460 678;" xml:space="preserve">
<style type="text/css">
	.st0{opacity:0.76;fill:#FEE000;}
	.st1{fill:#FFFFFF;}
	.st2{opacity:0.3;fill:#FFFFFF;}
	.st3{fill:#EFCC00;}
</style>
<g id="BG">
</g>
<g id="Object">
	<g>
		<g>
			<path class="st0" d="M443,226c0,119.3-216,434-216,434S11,345.3,11,226S107.7,10,227,10S443,106.7,443,226z"/>
			
				<ellipse transform="matrix(0.7071 -0.7071 0.7071 0.7071 -86.5745 223.9133)" class="st1" cx="227" cy="216.5" rx="101.5" ry="101.5"/>
		</g>
		<path class="st2" d="M48,244.9c0-103.6,84-187.6,187.6-187.6c60.6,0,114.4,28.7,148.7,73.2C352,74.3,291.3,36.5,221.7,36.5
			c-103.6,0-187.6,84-187.6,187.6c0,43.1,14.5,82.7,38.9,114.4C57.1,310.9,48,279,48,244.9z"/>
		<path class="st3" d="M176.1,577.4C205.5,626.7,227,660,227,660s216-314.7,216-434c0-6.3-0.3-12.4-0.8-18.6
			c-8.5,33.1-20.6,65.4-35.4,96.2C365.9,388.7,305.4,443.2,241,512.3C220.3,534.5,198.7,556.5,176.1,577.4z"/>
	</g>
</g>
</svg>
